<svg width="130" height="130" viewBox="0 0 130 130" fill="none" xmlns="http://www.w3.org/2000/svg">
<path d="M102.916 21.6667H92.083V16.25C92.083 14.8134 91.5123 13.4357 90.4965 12.4198C89.4807 11.404 88.1029 10.8333 86.6663 10.8333C85.2298 10.8333 83.852 11.404 82.8362 12.4198C81.8204 13.4357 81.2497 14.8134 81.2497 16.25V21.6667H48.7497V16.25C48.7497 14.8134 48.179 13.4357 47.1632 12.4198C46.1474 11.404 44.7696 10.8333 43.333 10.8333C41.8964 10.8333 40.5187 11.404 39.5028 12.4198C38.487 13.4357 37.9163 14.8134 37.9163 16.25V21.6667H27.083C22.7732 21.6667 18.64 23.3787 15.5925 26.4262C12.5451 29.4736 10.833 33.6069 10.833 37.9167V102.917C10.833 107.226 12.5451 111.36 15.5925 114.407C18.64 117.455 22.7732 119.167 27.083 119.167H102.916C107.226 119.167 111.359 117.455 114.407 114.407C117.454 111.36 119.166 107.226 119.166 102.917V37.9167C119.166 33.6069 117.454 29.4736 114.407 26.4262C111.359 23.3787 107.226 21.6667 102.916 21.6667ZM108.333 102.917C108.333 104.353 107.762 105.731 106.747 106.747C105.731 107.763 104.353 108.333 102.916 108.333H27.083C25.6464 108.333 24.2687 107.763 23.2528 106.747C22.237 105.731 21.6663 104.353 21.6663 102.917V65H108.333V102.917ZM108.333 54.1667H21.6663V37.9167C21.6663 36.4801 22.237 35.1023 23.2528 34.0865C24.2687 33.0707 25.6464 32.5 27.083 32.5H37.9163V37.9167C37.9163 39.3533 38.487 40.731 39.5028 41.7468C40.5187 42.7626 41.8964 43.3333 43.333 43.3333C44.7696 43.3333 46.1474 42.7626 47.1632 41.7468C48.179 40.731 48.7497 39.3533 48.7497 37.9167V32.5H81.2497V37.9167C81.2497 39.3533 81.8204 40.731 82.8362 41.7468C83.852 42.7626 85.2298 43.3333 86.6663 43.3333C88.1029 43.3333 89.4807 42.7626 90.4965 41.7468C91.5123 40.731 92.083 39.3533 92.083 37.9167V32.5H102.916C104.353 32.5 105.731 33.0707 106.747 34.0865C107.762 35.1023 108.333 36.4801 108.333 37.9167V54.1667Z" fill="black"/>
</svg>
