<svg width="90" height="90" viewBox="0 0 90 90" fill="none" xmlns="http://www.w3.org/2000/svg">
<path d="M82.1999 43.5C74.6249 25.9125 60.3749 15 44.9999 15C29.6249 15 15.3749 25.9125 7.79988 43.5C7.5934 43.9731 7.48682 44.4838 7.48682 45C7.48682 45.5162 7.5934 46.0269 7.79988 46.5C15.3749 64.0875 29.6249 75 44.9999 75C60.3749 75 74.6249 64.0875 82.1999 46.5C82.4064 46.0269 82.513 45.5162 82.513 45C82.513 44.4838 82.4064 43.9731 82.1999 43.5V43.5ZM44.9999 67.5C33.1124 67.5 21.8624 58.9125 15.3749 45C21.8624 31.0875 33.1124 22.5 44.9999 22.5C56.8874 22.5 68.1374 31.0875 74.6249 45C68.1374 58.9125 56.8874 67.5 44.9999 67.5ZM44.9999 30C42.0332 30 39.1331 30.8797 36.6663 32.528C34.1996 34.1762 32.277 36.5189 31.1417 39.2597C30.0064 42.0006 29.7093 45.0166 30.2881 47.9264C30.8669 50.8361 32.2955 53.5088 34.3933 55.6066C36.4911 57.7044 39.1638 59.133 42.0735 59.7118C44.9832 60.2906 47.9992 59.9935 50.7401 58.8582C53.481 57.7229 55.8237 55.8003 57.4719 53.3336C59.1202 50.8668 59.9999 47.9667 59.9999 45C59.9999 41.0218 58.4195 37.2064 55.6065 34.3934C52.7934 31.5804 48.9781 30 44.9999 30V30ZM44.9999 52.5C43.5165 52.5 42.0665 52.0601 40.8331 51.236C39.5997 50.4119 38.6384 49.2406 38.0708 47.8701C37.5031 46.4997 37.3546 44.9917 37.644 43.5368C37.9334 42.082 38.6477 40.7456 39.6966 39.6967C40.7455 38.6478 42.0819 37.9335 43.5367 37.6441C44.9916 37.3547 46.4996 37.5032 47.87 38.0709C49.2405 38.6386 50.4118 39.5999 51.2359 40.8332C52.06 42.0666 52.4999 43.5166 52.4999 45C52.4999 46.9891 51.7097 48.8968 50.3032 50.3033C48.8967 51.7098 46.989 52.5 44.9999 52.5Z" fill="#E26F1E"/>
</svg>
