<svg width="76" height="60" viewBox="0 0 76 60" fill="none" xmlns="http://www.w3.org/2000/svg">
<path fill-rule="evenodd" clip-rule="evenodd" d="M38 0C53.375 0 67.625 10.9125 75.2 28.5C75.4065 28.9731 75.5131 29.4838 75.5131 30C75.5131 30.5162 75.4065 31.0269 75.2 31.5C67.625 49.0875 53.375 60 38 60C22.625 60 8.375 49.0875 0.8 31.5C0.593512 31.0269 0.486932 30.5162 0.486932 30C0.486932 29.4838 0.593512 28.9731 0.8 28.5C8.375 10.9125 22.625 0 38 0ZM8.375 30C14.8625 43.9125 26.1125 52.5 38 52.5C49.8875 52.5 61.1375 43.9125 67.625 30C61.1375 16.0875 49.8875 7.5 38 7.5C26.1125 7.5 14.8625 16.0875 8.375 30ZM29.6664 17.528C32.1332 15.8797 35.0333 15 38 15C41.9782 15 45.7936 16.5804 48.6066 19.3934C51.4197 22.2064 53 26.0218 53 30C53 32.9667 52.1203 35.8668 50.472 38.3336C48.8238 40.8003 46.4811 42.7229 43.7403 43.8582C40.9994 44.9935 37.9834 45.2906 35.0736 44.7118C32.1639 44.133 29.4912 42.7044 27.3934 40.6066C25.2956 38.5088 23.867 35.8361 23.2882 32.9264C22.7094 30.0166 23.0065 27.0006 24.1418 24.2597C25.2771 21.5189 27.1997 19.1762 29.6664 17.528Z" fill="#E26F1E"/>
</svg>
