<svg width="80" height="80" viewBox="0 0 80 80" fill="none" xmlns="http://www.w3.org/2000/svg">
<g clip-path="url(#clip0_14_888)">
<path d="M80.0001 40.3112C80.0001 37.5308 79.7797 34.7353 79.3097 32H41.6001V47.7508H63.1946C62.2985 52.8307 58.6162 57.9444 54.4001 60.8L55.2032 70.4L67.2001 70.4C74.7655 63.2761 80.0001 52.7555 80.0001 40.3112Z" fill="#4285F4"/>
<path d="M40.6253 80C51.4378 80 60.5562 76.4945 67.1998 70.4436L54.3998 60.8C50.8055 63.2145 46.0463 64.3345 40.64 64.3345C30.1811 64.3345 20.7817 57.3673 17.5998 48H4.7998V58.1964C11.6055 71.5636 25.4672 80 40.6253 80Z" fill="#34A853"/>
<path d="M17.6 48C15.7661 43.1319 16.5661 36.8681 18.4 32L19.2 22.4L4.8 21.6C-1.40963 32.6756 -1.55236 46.5244 4.65727 57.6L17.6 48Z" fill="#FBBC04"/>
<path d="M41.397 15.6597C47.2357 15.5725 52.8788 17.695 57.1073 21.5911L68.7998 10.2953C61.3961 3.57893 51.5696 -0.113635 41.397 0.00266618C25.9124 0.00266618 11.7521 8.22538 4.7998 21.6L18.4034 32C21.6387 22.6232 30.7128 15.6597 41.397 15.6597Z" fill="#EA4335"/>
</g>
<defs>
<clipPath id="clip0_14_888">
<rect width="80" height="80" fill="white"/>
</clipPath>
</defs>
</svg>
