<svg width="60" height="76" viewBox="0 0 60 76" fill="none" xmlns="http://www.w3.org/2000/svg">
<path d="M30 41.75C28.8583 41.7367 27.7399 42.0734 26.7954 42.7149C25.8509 43.3564 25.1256 44.2718 24.717 45.338C24.3085 46.4042 24.2365 47.57 24.5106 48.6783C24.7846 49.7867 25.3917 50.7846 26.25 51.5375V56.75C26.25 57.7446 26.6451 58.6984 27.3484 59.4017C28.0516 60.1049 29.0054 60.5 30 60.5C30.9946 60.5 31.9484 60.1049 32.6516 59.4017C33.3549 58.6984 33.75 57.7446 33.75 56.75V51.5375C34.6083 50.7846 35.2154 49.7867 35.4894 48.6783C35.7635 47.57 35.6915 46.4042 35.283 45.338C34.8744 44.2718 34.1491 43.3564 33.2046 42.7149C32.2601 42.0734 31.1417 41.7367 30 41.75V41.75ZM48.75 26.75V19.25C48.75 14.2772 46.7746 9.50806 43.2583 5.99175C39.7419 2.47544 34.9728 0.5 30 0.5C25.0272 0.5 20.2581 2.47544 16.7417 5.99175C13.2254 9.50806 11.25 14.2772 11.25 19.25V26.75C8.26631 26.75 5.40483 27.9353 3.29505 30.045C1.18526 32.1548 0 35.0163 0 38V64.25C0 67.2337 1.18526 70.0952 3.29505 72.205C5.40483 74.3147 8.26631 75.5 11.25 75.5H48.75C51.7337 75.5 54.5952 74.3147 56.705 72.205C58.8147 70.0952 60 67.2337 60 64.25V38C60 35.0163 58.8147 32.1548 56.705 30.045C54.5952 27.9353 51.7337 26.75 48.75 26.75ZM18.75 19.25C18.75 16.2663 19.9353 13.4048 22.045 11.295C24.1548 9.18526 27.0163 8 30 8C32.9837 8 35.8452 9.18526 37.955 11.295C40.0647 13.4048 41.25 16.2663 41.25 19.25V26.75H18.75V19.25ZM52.5 64.25C52.5 65.2446 52.1049 66.1984 51.4017 66.9017C50.6984 67.6049 49.7446 68 48.75 68H11.25C10.2554 68 9.30161 67.6049 8.59835 66.9017C7.89509 66.1984 7.5 65.2446 7.5 64.25V38C7.5 37.0054 7.89509 36.0516 8.59835 35.3484C9.30161 34.6451 10.2554 34.25 11.25 34.25H48.75C49.7446 34.25 50.6984 34.6451 51.4017 35.3484C52.1049 36.0516 52.5 37.0054 52.5 38V64.25Z" fill="#888888"/>
</svg>
