<?xml version="1.0" encoding="UTF-8"?><svg id="a" xmlns="http://www.w3.org/2000/svg" viewBox="0 0 655.07 411.87"><path d="M170.38,411.82c-11.45,.48-19.03-2.76-22.75-9.72-3.72-6.96-6.29-13.33-7.7-19.11-5.16-21.18-3.7-58.83,4.38-112.95,2.32-15.14,3.5-25.72,3.54-31.74-3.56,7.23-7.28,15.42-11.18,24.58-5.34,12.75-11.12,25.09-17.34,37.02-6.23,11.92-11.94,20.03-17.15,24.3-5.2,4.28-9.44,6.81-12.71,7.61-4.91,1.2-10.18,.46-15.81-2.22-9.5-1.5-16.57-5.47-21.21-11.91-4.64-6.44-8.06-14.2-10.27-23.26-5.31,28.01-8.54,54.88-9.67,80.59-.28,10.71-1,17.48-2.16,20.3-1.16,2.83-2.83,4.51-5.02,5.04-1.74,.42-3.95,.38-6.62-.12l-.48-1.27c-.11-.44-.17-.94-.19-1.51-.02-.58-.12-1.19-.28-1.84-.03,.81-.21,1.38-.54,1.69-.33,.31-.68,.54-1.05,.69-.37,.15-.7,.32-1,.51,.03-.36-.02-.78-.14-1.27-.12-.49-.2-1.17-.23-2.02-.04-.86-.12-2.03-.25-3.5-.06,.71-.36,1.48-.91,2.31-.55,.83-1.06,1.44-1.54,1.85-.48,.4-.83,.64-1.05,.69-.43,.11-.72-.11-.85-.66-.13-.55-.12-1.47,.02-2.78-1.96,.48-2.92,.83-2.87,1.05l.52,1.44c-2.96-1.25-5.07-4.43-6.32-9.56-4.23-17.35,.19-60.41,13.26-129.17,3.24-17.56,4.75-27.47,4.55-29.73,.97-7.87,2.9-15.62,5.78-23.26-.24-.52-.46-1.16-.64-1.93-.69-2.84-.81-6.62-.34-11.37,.46-4.74,1.24-7.24,2.33-7.51,1.31-.32,2.7,2.29,4.16,7.83,.38-.79,.59-1.59,.63-2.41,.03-.82,.12-1.53,.26-2.14,.14-.61,.55-1.18,1.24-1.69l.6,1.76c.13,.55,.22,1.16,.27,1.84,.05,.68,.25,1.73,.6,3.15,2-2.22,3.93-3.56,5.79-4.01,6.33-1.54,12.15,8.55,17.44,30.27,3.01,12.34,6.02,28.49,9.04,48.45,2.58,15.79,4.47,26.15,5.66,31.06,1.14,4.69,2.32,7.65,3.54,8.85,9.37-13.27,19.79-32.78,31.27-58.53,11.47-25.75,22.71-52.11,33.71-79.08,7.96-19.52,15.19-36.69,21.7-51.52,6.5-14.83,11.08-24.15,13.73-27.98,2.65-3.82,4.41-5.85,5.29-6.06,1.09-.27,1.86,.53,2.32,2.38,.29,1.2,.45,2.78,.46,4.74l.61,.37c1.55-3.61,2.65-5.5,3.3-5.66,.24,.06,.43,.36,.57,.9,.09,2.29,.34,4.25,.74,5.89,.35,1.42,.95,2.02,1.83,1.81,.66-.16,1.19-.58,1.6-1.26,1.57-2.12,2.89-3.31,3.99-3.57,.65-.16,1.21,.23,1.67,1.15,.11-.03,.45-.28,1.03-.77,.58-.49,1.03-.77,1.35-.85,.54-.13,.9,.13,1.06,.78l.16,1.35,1.89-.81c2.4-.59,3.93,.49,4.6,3.22,1.65,6.77-1.14,24.04-8.35,51.82-2.17,8.16-3.32,13.19-3.44,15.06-23.04,109.47-31.18,188.99-24.41,238.57,.6,4.82,.85,8.23,.76,10.22-.1,1.99-.85,3.16-2.27,3.5l-.49,.12ZM14.87,300.12c3.93-26.8,8.12-53.59,12.59-80.35-11.57,63.07-18.82,116.82-21.75,161.25,2.17-27.13,5.23-54.1,9.16-80.9Zm5.32-17.69c2.92-19.33,5.55-38.42,7.9-57.26-9.6,52.65-16.71,105.55-21.32,158.72l1.43,.17c2.3-33.75,6.29-67.63,12-101.63Zm1.58,37.08c3.97-22.13,6.36-43.88,7.17-65.24-3.45,17.15-6.56,34.53-9.32,52.14-2.76,17.62-4.6,32.15-5.51,43.58-.91,11.44-.9,19.07,.03,22.89,.27,1.09,.59,1.94,.97,2.54,1.28-18.47,3.5-37.11,6.66-55.92Zm11.36-114.92c.05-1.23-.1-2.55-.45-3.97-.35-1.42-.99-2.65-1.94-3.69-.5,.81-.53,2.1-.1,3.84,.29,1.2,.49,2.48,.59,3.85,.59,1.48,1.05,2.17,1.38,2.09,.3-.19,.48-.9,.52-2.12Zm4.49-2.22c-.65-1.69-1.08-2.51-1.29-2.46-.44,.11-.51,1.46-.23,4.04,.26,2.02,.78,4.61,1.55,7.77,.54,.33,.92,.47,1.14,.42,.76-.18,.37-3.44-1.17-9.78Zm7.59,71.7c-.14,4.66,.33,9.17,1.39,13.54,1.33,5.46,3.84,12.19,7.53,20.2-2.75-9.39-5.73-20.64-8.92-33.73Zm9.75,17.92c-.98-4.04-3.39-15.31-7.2-33.8-.62,7.44,.05,15.14,1.99,23.11,2.21,9.06,5.36,17.95,9.45,26.67-1.52-5.3-2.93-10.62-4.24-15.97Zm-5.47-43.07c-.3,4.47,2.49,18.76,8.38,42.89,1.22,5.02,2.24,8.71,3.04,11.05-4.26-17.93-8.06-35.91-11.42-53.94Zm8.36,2.99c-1.56-8.29-3.23-16.56-5-24.8,.84,4.42,1.62,8.8,2.34,13.13,2.07,14.18,4.81,28.26,8.21,42.23,1.68,6.88,3.53,13.77,5.56,20.67-4.82-19.76-8.52-36.84-11.1-51.24Zm105.91-97.81c-8.26,18.32-16.36,37.01-24.32,56.06-13.1,32.11-27.41,63.58-42.9,94.42,26.31-48.16,48.71-98.32,67.22-150.48Zm7.76-34.33l-.73-.17c-11.29,25.3-22.1,50.95-32.41,76.94l33.15-76.78Zm-22.91,171.77c2.96-26.97,6.68-53.84,11.14-80.6-4.92,26.76-8.9,53.6-11.94,80.54-3.03,26.94-4.11,54.06-3.24,81.37-.28-27.22,1.07-54.32,4.03-81.3Zm-.92,31.1c2.09-26.3,5.28-52.46,9.58-78.49,2.1-13.69,4-27.23,5.71-40.6-4.52,23.19-8.47,48.96-11.86,77.31-3.38,28.35-5.21,51.9-5.5,70.64-.29,18.74,.51,31.99,2.4,39.74,.96,3.93,2.21,6.92,3.75,8.97-4.81-25.43-6.17-51.29-4.08-77.59Zm10.05-33.85c4.97-39.37,11.38-78.29,19.24-116.75l-.53-.04c-5.1,14.2-9.69,33.33-13.76,57.39-4.08,24.07-7.24,48.81-9.49,74.22-2.25,25.41-3.23,45.23-2.94,59.44,.28,14.21,1.08,23.99,2.38,29.34,.99,4.04,2.3,6.61,3.96,7.71-3.9-36.86-3.52-73.96,1.14-111.3Zm5.2,75.41c-.28,10.71,.23,21.34,1.53,31.89-.62-10.6-1.13-21.24-1.53-31.89Z"/><path d="M313,390.58c-1.2,.29-2.13,.14-2.8-.44-.66-.59-1.04-1.05-1.11-1.38-.05-.22-.04-.4,.04-.53l-.16,.04c.21,1.34,.15,2.04-.18,2.12-.22,.05-.65-.3-1.3-1.07-.27-.16-.57-.21-.9-.13s-.6,.38-.82,.89c-.59-1.48-1-2.7-1.25-3.69-.32-1.31-.53-2.65-.63-4.01-.05-.68-.21-1.57-.48-2.66-.31,1.11-.34,2.16-.1,3.15,.24,.98,.31,1.89,.23,2.72-.09,.83-.57,1.58-1.44,2.26-2.1-22.85-2.1-45.95,.02-69.3,2.11-23.35,4.96-46.63,8.56-69.83,2.05-14.38,3.93-28.71,5.65-43.01-2.07,.51-4.37,7.2-6.9,20.07s-4.87,29.12-7.03,48.72c-2.16,19.61-3.68,39.23-4.56,58.88-.88,19.64-.63,36.06,.74,49.26,.2,2.26,.14,3.43-.18,3.51-.55,.13-1.26-.79-2.15-2.77-.89-1.98-1.56-3.9-2.01-5.75-.32-1.31-.39-2.33-.23-3.07-.67-20.77-.02-41.6,1.94-62.49,1.96-20.89,4.42-41.64,7.38-62.25,1.74-13.26,3.34-26.37,4.81-39.33-1.61,4.32-3.98,16.99-7.13,37.99-3.15,21.01-5.63,44.39-7.44,70.16-1.81,25.77-1.55,47.97,.8,66.59-3.67-1.3-6.32-5.29-7.94-11.94-.45-1.86-1.1-5.95-1.95-12.27-.85-6.33-.77-17.16,.23-32.5,1-15.34,2.53-31.35,4.59-48.04l8.68-64.74c-7.55,5.08-14.75,9.49-21.58,13.24-8.83,4.58-16.72,9.69-23.68,15.31-6.95,5.63-12.74,13.57-17.35,23.83-4.61,10.26-7.67,24.65-9.16,43.17,1.57,6.44,.96,11.28-1.84,14.5-1.62,1.9-3.41,3.09-5.37,3.57-6.88,1.68-11.58-2.67-14.11-13.04-.16-.65-.73-3.23-1.71-7.73-.98-4.5,.83-15.58,5.43-33.24-2.68,2.28-6.36,4.73-11.04,7.38-5.96,3.53-11.12,5.83-15.49,6.9-3.71,.9-5.82,.32-6.32-1.75-.48-1.96,1.27-5.92,5.26-11.86-2.16,1.57-3.71,2.67-4.66,3.3-.94,.64-1.95,1.37-3.02,2.21-2.06-1.34-3.33-3-3.81-4.97-.59-2.4,.51-5.88,3.27-10.43,2.77-4.55,8-10.25,15.69-17.1,7.7-6.85,15.53-13.38,23.5-19.6,7.17-5.68,12.84-10.42,17.01-14.21,.39-1.71,3.19-8,8.41-18.87,5.21-10.87,11.79-23.75,19.72-38.64,7.93-14.88,16.12-29.23,24.55-43.02,8.43-13.79,16.12-24.49,23.06-32.07,3.81-4.28,7.03-6.75,9.65-7.38,2.18-.53,3.95,.08,5.3,1.83,6.13,4.29,11.37,6.77,15.69,7.45,6.07,1.18,9.72,4.28,10.94,9.3,.64,2.62,.95,7,.95,13.13,.12,11.88-4.61,47.73-14.2,107.54-7.13,45.69-12.63,101.67-16.47,167.95-.08,4.88-1.27,7.6-3.56,8.15Zm-137.1-119.05c10.33-10.27,19-17.88,26.01-22.82,7.66-5.57,14.29-11.34,19.89-17.34-16.75,11.95-32.2,25.19-46.34,39.74l.45,.41Zm11.94-.83c3.76-3.58,7.96-6.97,12.61-10.19,8.92-6.11,14.74-11.63,17.47-16.58-2.52,1.54-8.55,5.96-18.1,13.26-8.98,6.81-13.25,11.1-12.83,12.84,.08,.33,.37,.55,.85,.66Zm20.89,47.99l.86-13.57c-1.36,4.38-1.65,8.9-.86,13.57Zm2.92-3.66c1.69-4.92,2.89-9.96,3.6-15.1,1.21-7.35,4.18-19.12,8.91-35.3-2.14,2.14-4.16,6.31-6.06,12.49-1.9,6.19-3.44,12.81-4.61,19.86-1.17,7.05-1.78,13.07-1.84,18.06Zm21.56-79.5c1.42-.81,2.2-2.1,2.35-3.87-1.12,.62-1.83,1.17-2.11,1.64-.29,.48-.37,1.22-.24,2.23Zm4.4-25.36c15.1-32.94,32.11-64.43,51.03-94.49-16.38,22.96-33.25,53.85-50.62,92.66-.41,.68-.55,1.29-.42,1.84Zm7.5-4.08c5.78-10.43,11.56-21.14,17.31-32.15,7.53-14.67,15.52-29.08,23.98-43.23,8.46-14.15,18.12-27.17,28.98-39.07-16.01,15.93-29.57,33.95-40.68,54.07-11.11,20.12-20.98,40.24-29.6,60.38Zm8.78,16.07c15.4-9.42,31.32-17.87,47.77-25.35-6.22,1.52-14.42,4.64-24.6,9.38-10.18,4.74-17.9,10.06-23.17,15.97Zm6.54-13.74l7.99-4.2-.12-.49-8.2,4.08,.32,.61Zm4.73-12.6c5.25-2.67,11.05-4.95,17.41-6.85,8.87-2.51,16.09-5.89,21.64-10.13,3.81-22.32,7.26-43.98,10.35-64.97l-.77-.33c-16.37,21.11-32.58,48.53-48.63,82.29Zm23.65-80.18c1.34-1.6,5.85-7.78,13.52-18.56-4.09,4.58-7.82,9.43-11.2,14.53-.25,.41-.53,.8-.84,1.16-.32,.37-.62,.79-.91,1.26-.29,.48-.48,1.01-.56,1.61Zm2.82,217.19c2.04-27.67,4.79-55.29,8.25-82.85-4.17,27.5-6.92,55.12-8.25,82.85Zm17.71,46.33c1.98-54.03,6.91-107.79,14.8-161.29-8.49,53.42-13.42,107.18-14.8,161.29Zm2.32-200.4c2.66-7.12,4.7-15.11,6.13-23.96,1.43-8.85,2.58-17.74,3.47-26.69,.88-8.95,1.95-17.27,3.19-24.98-1.58,.62-2.46,1.76-2.64,3.42-1.79,17.32-4.14,34.72-7.05,52.2l-3.1,20.01Zm8.1-.93c1.31-.32,4.63-25.35,9.96-75.11l-.23-1.68c-.16-.66-.46-.93-.89-.82-.9,.57-1.25,1.29-1.03,2.16-2.17,11.52-3.92,23.05-5.27,34.59-2.7,23.56-3.64,37.03-2.81,40.41,.08,.33,.17,.48,.28,.45Zm5.88-12.19l1.95-11.92c3.03-15.54,4.84-31.13,5.42-46.77-1.09,13.1-2.65,26.15-4.69,39.13l-2.69,19.56Zm7.06,9.73c.82-6.1,1.84-12.36,3.05-18.79,4.05-21.34,5.74-37.88,5.07-49.63-.99,15.85-2.75,31.66-5.26,47.43-1.08,6.97-2.03,13.97-2.86,20.99Z"/><path d="M403.41,314.59c-3.49,.85-8.61,1.08-15.35,.71-6.74-.38-13.88-4.4-21.41-12.04-4.6-4.66-7.85-10.86-9.74-18.61-1.14-4.69-1.83-12.36-2.05-23-.22-10.64,5.7-27.96,17.78-51.95,4.06-32.21,9.84-63.75,17.35-94.61-3.48,3.28-8.95,9.55-16.4,18.83-7.45,9.28-13.92,19.04-19.4,29.28-4.93,9.18-6.67,16.78-5.2,22.78l.64,1.93c4.47-.16,6.96,.79,7.46,2.86,.19,.77-.06,1.55-.73,2.35-.67,.8-1.55,1.33-2.65,1.6-.87,.21-1.89,.29-3.07,.23-8.77-1.33-14.07-5.76-15.91-13.3-.51-2.07-.75-6.64-.74-13.7,.01-7.06,4.17-18.82,12.47-35.31,8.3-16.48,19.29-32.72,32.97-48.72,13.68-16,28.53-29.07,44.56-39.23,9.03-5.67,17.96-9.58,26.8-11.74,6.88-1.68,15.87-2.13,26.98-1.37,11.12,.76,22.57,9.94,34.38,27.53,1.21,2.6,2.2,5.48,2.97,8.64,2.74,11.24,2.62,26.89-.36,46.92-2.98,20.04-9.35,42.99-19.12,68.85-9.77,25.86-21.58,49.99-35.43,72.39-13.85,22.4-28.47,39.75-43.86,52.07-3.84,3.25-8.16,5.46-12.96,6.63Zm-67.03-134.75c.67-6.29,1.89-12.43,3.66-18.41-2.87,5.79-4.09,11.93-3.66,18.41Zm2.73,1.24c1.25-8.63,3.8-16.89,7.66-24.77,4.97-11.39,11.16-22.06,18.56-32.02,7.4-9.96,15.12-19.56,23.16-28.8l10.58-12.81c-5.18,4.38-12.56,12.17-22.15,23.35-9.59,11.19-18.31,23.58-26.16,37.17-7.84,13.6-11.73,26.22-11.67,37.89Zm9.19-41.27c12.72-22.3,28.02-42.56,45.89-60.8-18.72,17.63-34.02,37.9-45.89,60.8Zm13.3,137.09c1.2-14.05,3.76-27.28,7.67-39.69l.8-3.14c-7.4,16.15-10.22,30.42-8.47,42.83Zm4.36,2.93c.3-4.47,1.06-8.93,2.29-13.39,2.17-8.16,2.62-14.86,1.34-20.1-3.74,11.21-4.96,22.37-3.63,33.5Zm1.39-42.67l3.48-8.48-.73-.17-3.32,8.44,.57,.21Zm2.09,41.3l2.84-17.52c-1,2.56-1.78,5.63-2.34,9.24-.56,3.61-.73,6.37-.5,8.28Zm7.16-43.21c.36-.89,.61-2.92,.77-6.09-.69,1.9-.95,3.93-.77,6.09Zm.1,45.25l1.79-11.89-.74-.17c-1,3.95-1.35,7.96-1.05,12.05Zm2.22-51.37c1.27-1.93,1.59-4.15,.98-6.66-.53,1.63-.86,3.85-.98,6.66Zm1.81-29.58c5.01-32.1,11.53-63.93,19.57-95.5-2.09,3.29-6.02,19.07-11.78,47.37-5.77,28.29-8.36,44.34-7.78,48.13Zm5.57,89.71c3.38-.82,7.99-4.09,13.83-9.79,5.84-5.7,11.84-12.49,18.02-20.35,6.18-7.87,10.67-14.11,13.48-18.73,2.58-2.71,6.76-9.63,12.55-20.75,5.79-11.12,12.06-24.53,18.81-40.23,6.76-15.7,12.82-31.72,18.21-48.07,5.38-16.34,8.97-31.04,10.76-44.08,1.17-8.49,1.09-15.47-.25-20.93-.69-2.84-1.76-5.3-3.19-7.38-3.03-4.35-8.36-5.59-16-3.73-2.51,.61-5.33,1.59-8.48,2.93-15.33,6.4-29.14,14.74-41.43,25.02,2.11,2.03,3.52,4.46,4.21,7.3,1.36,5.57-.38,16.46-5.22,32.67-3.36,10.42-6.08,22.01-8.17,34.78,.03,.11,.09,.15,.2,.12s.18,.02,.21,.12c1.97-1.87,4.3-4.17,6.99-6.91,14.75-15.85,27.1-24.99,37.03-27.42,5.35-1.3,10.57-.5,15.68,2.42l.44,1.11c.13,.55-.13,.9-.78,1.06-1.14,.05-2.26,.21-3.35,.47-14.34,6.16-26.33,15.21-35.96,27.16-9.64,11.95-18.19,24.67-25.65,38.17-2.25,2.63-3.67,7.46-4.27,14.49-.6,7.03-.95,14.83-1.06,23.42-.15,11.72-.86,21.84-2.14,30.36-.99,6.37-3.02,9.93-6.07,10.67-1.53,.37-2.9,.19-4.13-.56-2.71-2.11-4.67-3.03-5.87-2.73-.65,.16-1.2,.75-1.65,1.79-1.73,7.13-2.25,12.11-1.56,14.95,.59,2.4,2.19,3.28,4.81,2.65Zm-3.25-93.75c3.27-18.84,6.72-37.66,10.35-56.47-4.36,18.64-7.81,37.47-10.35,56.47Zm1.51,21.14l.49-.81c2.58-4.1,3.77-7.8,3.54-11.1-2.34,3.69-3.68,7.66-4.03,11.91Zm4.46-29.36c3.1-3.88,5.75-13.43,7.93-28.65,1-7.29,2.33-14.39,4.01-21.27,.3-9.21,2.23-18.12,5.8-26.74,2.24-5.98,3.87-11.87,4.88-17.67-2.31,2.88-6.74,18.01-13.3,45.4-6.57,27.39-9.67,43.7-9.32,48.94Zm13.59-107.91c.76-.19,2.59-1.33,5.5-3.42,2.9-2.1,5.95-4.43,9.14-7,3.19-2.57,5.73-4.72,7.62-6.45-7.88,4.7-15.29,10.32-22.25,16.87Zm.77,217.34c13.21-8.89,26.88-24.33,41-46.34,14.12-22,26.52-46.94,37.19-74.81,10.67-27.87,17.4-55.04,20.2-81.51,.2-2.02,.12-4.02-.25-6.01-2.45,17.94-7.65,39.54-15.6,64.78-7.96,25.25-18.75,50.69-32.39,76.33-13.64,25.65-30.35,48.16-50.14,67.56Zm6.51-15.29c12.39-13.2,22.96-27.48,31.7-42.86,8.74-15.37,16.68-31.21,23.8-47.52-7.53,16.06-15.73,31.76-24.59,47.11-8.87,15.34-19.17,29.77-30.91,43.27Zm.87-107.42c6.84-8.95,14.06-17.39,21.67-25.32,7.61-7.93,16.13-14.83,25.57-20.72l-4.31,2.26c-20.57,13.81-34.88,28.4-42.93,43.77Zm35.62,59.31c30.95-53.8,48.12-104.07,51.53-150.82l.21-1.27-.08-.33c-7.28,51.27-24.5,102.07-51.66,152.41Zm47.8-87.11c1.11-2.58,2.29-6.25,3.56-11.02,1.27-4.76,2.4-9.49,3.39-14.19,.99-4.69,1.55-8.21,1.68-10.56-2.41,11.92-5.29,23.84-8.63,35.76Zm6.06,5.64c5.18-14.33,8.59-29.04,10.23-44.13-2.73,14.89-6.14,29.6-10.23,44.13Z"/><path d="M620.83,315.54c-1.2,.29-2.13,.15-2.8-.45-.67-.59-1.04-1.05-1.12-1.37-.05-.22-.04-.4,.04-.53l-.16,.04c.21,1.34,.15,2.04-.18,2.12-.22,.05-.65-.3-1.3-1.07-.27-.17-.57-.21-.9-.13-.33,.08-.6,.38-.82,.89-.59-1.48-1.01-2.7-1.25-3.69-.32-1.31-.53-2.65-.63-4.01-.05-.68-.21-1.57-.48-2.66-.31,1.11-.34,2.16-.1,3.14,.24,.98,.31,1.89,.23,2.72-.09,.83-.57,1.58-1.44,2.26-2.1-22.85-2.1-45.95,.02-69.3,2.11-23.35,4.97-46.63,8.56-69.83,2.05-14.38,3.93-28.71,5.65-43.01-2.07,.51-4.38,7.2-6.9,20.07-2.53,12.88-4.87,29.12-7.03,48.72-2.16,19.61-3.68,39.24-4.55,58.88-.88,19.64-.64,36.06,.73,49.26,.21,2.26,.14,3.44-.18,3.52-.55,.13-1.26-.79-2.15-2.77-.89-1.98-1.56-3.9-2.01-5.75-.32-1.31-.39-2.33-.23-3.07-.67-20.77-.02-41.6,1.94-62.49,1.96-20.89,4.42-41.64,7.37-62.25,1.74-13.26,3.34-26.37,4.81-39.34-1.61,4.33-3.98,16.99-7.13,37.99-3.15,21.01-5.63,44.39-7.44,70.16-1.81,25.77-1.55,47.97,.8,66.59-3.67-1.3-6.32-5.29-7.94-11.94-.45-1.86-1.1-5.95-1.95-12.27-.85-6.33-.77-17.16,.23-32.5s2.53-31.35,4.59-48.04l8.68-64.74c-7.55,5.08-14.74,9.49-21.58,13.24-8.83,4.58-16.72,9.69-23.68,15.31-6.95,5.63-12.74,13.57-17.35,23.83-4.61,10.26-7.67,24.65-9.16,43.17,1.57,6.44,.95,11.28-1.84,14.5-1.62,1.9-3.41,3.09-5.38,3.57-6.88,1.68-11.58-2.67-14.11-13.04-.16-.65-.73-3.23-1.71-7.73-.98-4.5,.83-15.58,5.43-33.24-2.68,2.28-6.36,4.73-11.04,7.37-5.96,3.54-11.12,5.84-15.49,6.9-3.71,.9-5.82,.32-6.32-1.75-.48-1.96,1.28-5.92,5.26-11.87-2.16,1.57-3.71,2.67-4.66,3.3-.94,.64-1.95,1.37-3.02,2.21-2.06-1.34-3.33-3-3.81-4.97-.59-2.4,.51-5.87,3.27-10.42,2.77-4.55,8-10.25,15.69-17.1,7.7-6.85,15.53-13.38,23.5-19.61,7.17-5.68,12.84-10.42,17.01-14.21,.39-1.71,3.19-8.01,8.41-18.88,5.21-10.87,11.79-23.75,19.73-38.64,7.93-14.88,16.12-29.23,24.55-43.02,8.43-13.79,16.12-24.49,23.06-32.08,3.81-4.28,7.03-6.74,9.65-7.38,2.18-.53,3.95,.08,5.3,1.83,6.13,4.29,11.37,6.77,15.69,7.45,6.07,1.18,9.72,4.28,10.94,9.3,.64,2.62,.95,7,.95,13.13,.12,11.88-4.61,47.73-14.2,107.54-7.14,45.69-12.63,101.67-16.47,167.95-.09,4.88-1.27,7.59-3.56,8.15Zm-137.1-119.05c10.34-10.27,19-17.88,26.01-22.82,7.66-5.57,14.29-11.35,19.89-17.34-16.75,11.95-32.19,25.19-46.34,39.75l.45,.41Zm11.94-.83c3.76-3.57,7.96-6.97,12.61-10.19,8.92-6.1,14.74-11.63,17.47-16.58-2.52,1.54-8.55,5.96-18.1,13.26-8.98,6.81-13.25,11.1-12.83,12.84,.08,.33,.37,.55,.86,.66Zm20.89,47.99l.86-13.57c-1.36,4.38-1.65,8.9-.86,13.57Zm2.92-3.66c1.69-4.92,2.89-9.96,3.6-15.1,1.22-7.35,4.19-19.12,8.91-35.31-2.14,2.14-4.16,6.31-6.06,12.49-1.9,6.19-3.44,12.81-4.61,19.86-1.17,7.05-1.78,13.07-1.84,18.06Zm21.56-79.5c1.42-.81,2.2-2.1,2.35-3.87-1.12,.62-1.83,1.17-2.11,1.64-.29,.48-.37,1.22-.24,2.23Zm4.4-25.36c15.1-32.94,32.11-64.44,51.03-94.49-16.38,22.96-33.25,53.84-50.61,92.66-.41,.68-.55,1.29-.42,1.84Zm7.5-4.08c5.78-10.43,11.56-21.15,17.31-32.15,7.53-14.67,15.52-29.08,23.98-43.23,8.46-14.15,18.12-27.17,28.98-39.07-16.01,15.93-29.57,33.95-40.68,54.07-11.11,20.12-20.98,40.24-29.6,60.38Zm8.78,16.07c15.4-9.42,31.32-17.87,47.77-25.35-6.22,1.52-14.42,4.64-24.6,9.38-10.18,4.74-17.9,10.06-23.17,15.97Zm6.54-13.74l7.99-4.2-.12-.49-8.2,4.08,.32,.61Zm4.73-12.6c5.25-2.67,11.05-4.95,17.41-6.85,8.87-2.51,16.09-5.89,21.64-10.13,3.81-22.32,7.26-43.98,10.35-64.97l-.78-.33c-16.36,21.11-32.57,48.53-48.63,82.28Zm23.65-80.18c1.34-1.6,5.85-7.78,13.52-18.56-4.09,4.58-7.82,9.43-11.2,14.53-.25,.41-.53,.8-.85,1.16-.32,.37-.62,.79-.91,1.26-.29,.48-.48,1.01-.56,1.61Zm2.82,217.19c2.04-27.67,4.79-55.29,8.25-82.85-4.17,27.5-6.92,55.11-8.25,82.85Zm17.71,46.33c1.98-54.03,6.91-107.79,14.8-161.29-8.49,53.42-13.42,107.18-14.8,161.29Zm2.32-200.4c2.66-7.12,4.7-15.11,6.13-23.96,1.43-8.85,2.58-17.74,3.47-26.69,.88-8.95,1.95-17.27,3.19-24.98-1.58,.62-2.46,1.76-2.64,3.42-1.79,17.32-4.14,34.72-7.05,52.2l-3.1,20.01Zm8.1-.93c1.31-.32,4.63-25.35,9.96-75.11l-.24-1.68c-.16-.66-.46-.93-.89-.82-.9,.57-1.25,1.29-1.03,2.16-2.17,11.52-3.92,23.05-5.27,34.59-2.7,23.56-3.63,37.03-2.81,40.41,.08,.33,.17,.48,.28,.45Zm5.88-12.19l1.95-11.92c3.03-15.54,4.84-31.13,5.42-46.77-1.08,13.1-2.65,26.14-4.68,39.13l-2.69,19.56Zm7.06,9.73c.82-6.1,1.84-12.36,3.05-18.79,4.05-21.34,5.74-37.88,5.07-49.63-.99,15.85-2.75,31.66-5.26,47.43-1.08,6.97-2.03,13.97-2.86,20.99Z"/></svg>