<svg width="130" height="130" viewBox="0 0 130 130" fill="none" xmlns="http://www.w3.org/2000/svg">
<path d="M65.0003 10.8333C53.5076 10.8333 42.4856 15.3988 34.359 23.5254C26.2325 31.652 21.667 42.674 21.667 54.1667C21.667 83.4167 59.8545 116.458 61.4795 117.867C62.4606 118.706 63.7092 119.167 65.0003 119.167C66.2914 119.167 67.54 118.706 68.5212 117.867C70.417 116.458 108.334 83.4167 108.334 54.1667C108.334 42.674 103.768 31.652 95.6416 23.5254C87.515 15.3988 76.493 10.8333 65.0003 10.8333ZM65.0003 106.438C53.4628 95.6042 32.5003 72.2583 32.5003 54.1667C32.5003 45.5471 35.9244 37.2806 42.0194 31.1857C48.1143 25.0908 56.3808 21.6667 65.0003 21.6667C73.6199 21.6667 81.8864 25.0908 87.9813 31.1857C94.0762 37.2806 97.5003 45.5471 97.5003 54.1667C97.5003 72.2583 76.5378 95.6583 65.0003 106.438ZM65.0003 32.5C60.7151 32.5 56.526 33.7707 52.963 36.1515C49.3999 38.5323 46.6228 41.9161 44.9829 45.8752C43.343 49.8343 42.914 54.1907 43.75 58.3936C44.586 62.5965 46.6495 66.4572 49.6797 69.4873C52.7098 72.5175 56.5704 74.581 60.7734 75.417C64.9763 76.253 69.3327 75.824 73.2918 74.1841C77.2509 72.5442 80.6347 69.7671 83.0155 66.204C85.3963 62.641 86.667 58.4519 86.667 54.1667C86.667 48.4203 84.3843 42.9093 80.321 38.846C76.2577 34.7827 70.7467 32.5 65.0003 32.5ZM65.0003 65C62.8577 65 60.7632 64.3646 58.9816 63.1743C57.2001 61.9839 55.8116 60.2919 54.9916 58.3124C54.1717 56.3329 53.9571 54.1547 54.3751 52.0532C54.7932 49.9517 55.8249 48.0214 57.34 46.5063C58.8551 44.9913 60.7854 43.9595 62.8868 43.5415C64.9883 43.1235 67.1665 43.338 69.1461 44.158C71.1256 44.9779 72.8175 46.3665 74.0079 48.148C75.1983 49.9295 75.8337 52.024 75.8337 54.1667C75.8337 57.0398 74.6923 59.7953 72.6606 61.827C70.629 63.8586 67.8735 65 65.0003 65Z" fill="black"/>
</svg>
