<svg width="90" height="90" viewBox="0 0 90 90" fill="none" xmlns="http://www.w3.org/2000/svg">
<path d="M71.25 15H18.75C15.7663 15 12.9048 16.1853 10.795 18.295C8.68526 20.4048 7.5 23.2663 7.5 26.25V63.75C7.5 66.7337 8.68526 69.5952 10.795 71.705C12.9048 73.8147 15.7663 75 18.75 75H71.25C74.2337 75 77.0952 73.8147 79.205 71.705C81.3147 69.5952 82.5 66.7337 82.5 63.75V26.25C82.5 23.2663 81.3147 20.4048 79.205 18.295C77.0952 16.1853 74.2337 15 71.25 15ZM18.75 22.5H71.25C72.2446 22.5 73.1984 22.8951 73.9017 23.5984C74.6049 24.3016 75 25.2554 75 26.25L45 44.55L15 26.25C15 25.2554 15.3951 24.3016 16.0984 23.5984C16.8016 22.8951 17.7554 22.5 18.75 22.5ZM75 63.75C75 64.7446 74.6049 65.6984 73.9017 66.4017C73.1984 67.1049 72.2446 67.5 71.25 67.5H18.75C17.7554 67.5 16.8016 67.1049 16.0984 66.4017C15.3951 65.6984 15 64.7446 15 63.75V34.8L43.05 51.9375C43.6201 52.2666 44.2667 52.4399 44.925 52.4399C45.5833 52.4399 46.2299 52.2666 46.8 51.9375L75 34.8V63.75Z" fill="#888888"/>
</svg>
