<svg width="76" height="76" viewBox="0 0 76 76" fill="none" xmlns="http://www.w3.org/2000/svg">
  <path
    d="M23.4972 49.21C22.9074 49.8033 22.5763 50.6059 22.5763 51.4425C22.5763 52.2791 22.9074 53.0817 23.4972 53.675C23.7915 53.9718 24.1418 54.2074 24.5277 54.3681C24.9136 54.5289 25.3275 54.6117 25.7455 54.6117C26.1635 54.6117 26.5774 54.5289 26.9633 54.3681C27.3492 54.2074 27.6994 53.9718 27.9938 53.675C28.5836 53.0817 28.9147 52.2791 28.9147 51.4425C28.9147 50.6059 28.5836 49.8033 27.9938 49.21C27.6994 48.9132 27.3492 48.6776 26.9633 48.5168C26.5774 48.356 26.1635 48.2733 25.7455 48.2733C25.3275 48.2733 24.9136 48.356 24.5277 48.5168C24.1418 48.6776 23.7915 48.9132 23.4972 49.21ZM23.4972 22.325C22.9074 22.9183 22.5763 23.7209 22.5763 24.5575C22.5763 25.3941 22.9074 26.1967 23.4972 26.79C23.7915 27.0868 24.1418 27.3224 24.5277 27.4831C24.9136 27.6439 25.3275 27.7267 25.7455 27.7267C26.1635 27.7267 26.5774 27.6439 26.9633 27.4831C27.3492 27.3224 27.6994 27.0868 27.9938 26.79C28.5836 26.1967 28.9147 25.3941 28.9147 24.5575C28.9147 23.7209 28.5836 22.9183 27.9938 22.325C27.6994 22.0282 27.3492 21.7926 26.9633 21.6318C26.5774 21.471 26.1635 21.3883 25.7455 21.3883C25.3275 21.3883 24.9136 21.471 24.5277 21.6318C24.1418 21.7926 23.7915 22.0282 23.4972 22.325ZM39.1722 53.9916C38.5458 53.9916 37.9336 54.1774 37.4129 54.5253C36.8921 54.8733 36.4862 55.3678 36.2465 55.9465C36.0069 56.5251 35.9441 57.1618 36.0663 57.7761C36.1885 58.3904 36.4901 58.9546 36.933 59.3975C37.3759 59.8403 37.9401 60.1419 38.5544 60.2641C39.1686 60.3863 39.8054 60.3236 40.384 60.0839C40.9626 59.8442 41.4572 59.4384 41.8051 58.9176C42.1531 58.3969 42.3388 57.7846 42.3388 57.1583C42.3603 56.7293 42.2943 56.3005 42.1448 55.8978C41.9953 55.4951 41.7654 55.1271 41.4692 54.8161C41.173 54.505 40.8166 54.2575 40.4217 54.0886C40.0268 53.9196 39.6017 53.8328 39.1722 53.8333V53.9916ZM20.1722 34.9916C19.5458 34.9916 18.9336 35.1774 18.4129 35.5253C17.8921 35.8733 17.4862 36.3678 17.2465 36.9465C17.0069 37.5251 16.9442 38.1618 17.0663 38.7761C17.1885 39.3904 17.4901 39.9546 17.933 40.3975C18.3759 40.8403 18.9401 41.1419 19.5544 41.2641C20.1686 41.3863 20.8054 41.3236 21.384 41.0839C21.9626 40.8442 22.4572 40.4384 22.8051 39.9176C23.1531 39.3969 23.3388 38.7846 23.3388 38.1583C23.3603 37.7293 23.2943 37.3005 23.1448 36.8978C22.9953 36.4951 22.7654 36.1271 22.4692 35.8161C22.173 35.505 21.8166 35.2575 21.4217 35.0886C21.0268 34.9196 20.6017 34.8328 20.1722 34.8333V34.9916ZM39.1722 15.9916C38.5458 15.9916 37.9336 16.1774 37.4129 16.5253C36.8921 16.8733 36.4862 17.3678 36.2465 17.9465C36.0069 18.5251 35.9441 19.1618 36.0663 19.7761C36.1885 20.3904 36.4901 20.9546 36.933 21.3975C37.3759 21.8403 37.9401 22.1419 38.5544 22.2641C39.1686 22.3863 39.8054 22.3236 40.384 22.0839C40.9626 21.8442 41.4572 21.4384 41.8051 20.9176C42.1531 20.3969 42.3388 19.7846 42.3388 19.1583C42.3603 18.7293 42.2943 18.3005 42.1448 17.8978C41.9953 17.4951 41.7654 17.1271 41.4692 16.8161C41.173 16.505 40.8166 16.2575 40.4217 16.0886C40.0268 15.9196 39.6017 15.8328 39.1722 15.8333V15.9916ZM50.3822 22.4833C49.9374 22.9254 49.6339 23.4896 49.5102 24.1044C49.3865 24.7192 49.4481 25.3569 49.6872 25.9366C49.9264 26.5163 50.3322 27.012 50.8534 27.3608C51.3746 27.7096 51.9875 27.8958 52.6147 27.8958C53.2418 27.8958 53.8548 27.7096 54.3759 27.3608C54.8971 27.012 55.303 26.5163 55.5421 25.9366C55.7812 25.3569 55.8428 24.7192 55.7191 24.1044C55.5954 23.4896 55.2919 22.9254 54.8472 22.4833C54.275 21.872 53.4841 21.5121 52.6473 21.4825C51.8106 21.4528 50.9961 21.7557 50.3822 22.325V22.4833ZM70.3322 22.4833C67.437 16.6956 62.9868 11.8288 57.4805 8.42869C51.9743 5.02858 45.6297 3.2296 39.1582 3.23347C32.6868 3.23733 26.3444 5.0439 20.8422 8.45058C15.34 11.8573 10.8956 16.7294 8.00735 22.5205C5.11911 28.3117 3.90126 34.793 4.49033 41.2376C5.07941 47.6822 7.45214 53.8352 11.3424 59.0068C15.2327 64.1784 20.4868 68.164 26.5154 70.5167C32.5441 72.8694 39.1089 73.4961 45.4738 72.3266C47.0744 72.0255 48.5989 71.4083 49.9582 70.5111C51.3175 69.614 52.4843 68.4549 53.3905 67.1016C54.3669 65.6304 55.0406 63.9794 55.3723 62.2451C55.7039 60.5107 55.6869 58.7277 55.3222 57C55.1227 55.9559 55.0168 54.8962 55.0055 53.8333C55.0194 50.7647 55.9246 47.7662 57.6112 45.2026C59.2978 42.639 61.693 40.6207 64.5055 39.3933C66.0219 38.7143 67.3831 37.7318 68.505 36.5064C69.627 35.2809 70.4859 33.8386 71.0288 32.2683C71.5779 30.6637 71.7992 28.9652 71.6795 27.2735C71.5598 25.5818 71.1017 23.9313 70.3322 22.42V22.4833ZM64.9488 30.21C64.6786 30.9678 64.2591 31.6638 63.7152 32.2566C63.1713 32.8495 62.514 33.3273 61.7822 33.6616C57.8871 35.4052 54.5781 38.236 52.2526 41.8142C49.927 45.3924 48.6838 49.5658 48.6722 53.8333C48.6768 55.3219 48.8253 56.8066 49.1155 58.2666C49.3089 59.159 49.3217 60.081 49.1531 60.9784C48.9845 61.8758 48.6379 62.7303 48.1338 63.4916C47.7073 64.1579 47.146 64.7275 46.4861 65.1638C45.8262 65.6001 45.0823 65.8935 44.3022 66.025C42.6107 66.3428 40.8932 66.5019 39.1722 66.5C35.3537 66.5018 31.5738 65.7363 28.0569 64.2489C24.54 62.7616 21.3579 60.5826 18.6995 57.8415C16.0411 55.1004 13.9607 51.853 12.5817 48.2923C11.2027 44.7315 10.5534 40.9299 10.6722 37.1133C10.9179 29.9971 13.804 23.2273 18.7682 18.1227C23.7323 13.018 30.419 9.9442 37.5255 9.49997H39.1405C44.447 9.5013 49.6478 10.9841 54.1572 13.7815C58.6665 16.5789 62.3054 20.5797 64.6638 25.3333C65.3898 26.8374 65.4922 28.5674 64.9488 30.1466V30.21ZM39.1722 34.8333C38.5458 34.8333 37.9336 35.019 37.4129 35.367C36.8921 35.7149 36.4862 36.2095 36.2465 36.7881C36.0069 37.3668 35.9441 38.0035 36.0663 38.6178C36.1885 39.232 36.4901 39.7963 36.933 40.2391C37.3759 40.682 37.9401 40.9836 38.5544 41.1058C39.1686 41.228 39.8054 41.1653 40.384 40.9256C40.9626 40.6859 41.4572 40.28 41.8051 39.7593C42.1531 39.2385 42.3388 38.6263 42.3388 38C42.3388 37.1601 42.0052 36.3547 41.4113 35.7608C40.8175 35.1669 40.012 34.8333 39.1722 34.8333Z"
    fill="#424242" />
</svg>