<svg width="100" height="100" viewBox="0 0 100 100" fill="none" xmlns="http://www.w3.org/2000/svg">
<path d="M90.4582 84.5417L74.9998 69.2083C81.0003 61.7267 83.9061 52.2304 83.1199 42.6721C82.3337 33.1138 77.9151 24.2199 70.7728 17.8194C63.6305 11.4188 54.3074 7.99796 44.7204 8.26029C35.1333 8.52263 26.0112 12.4482 19.2296 19.2298C12.448 26.0113 8.52247 35.1335 8.26014 44.7205C7.9978 54.3075 11.4186 63.6307 17.8192 70.773C24.2198 77.9153 33.1136 82.3338 42.6719 83.12C52.2303 83.9063 61.7266 81.0004 69.2082 75L84.5415 90.3333C84.9289 90.7239 85.3897 91.0339 85.8974 91.2454C86.4052 91.4569 86.9498 91.5658 87.4998 91.5658C88.0499 91.5658 88.5945 91.4569 89.1022 91.2454C89.61 91.0339 90.0708 90.7239 90.4582 90.3333C91.2092 89.5564 91.629 88.5181 91.629 87.4375C91.629 86.3569 91.2092 85.3186 90.4582 84.5417ZM45.8332 75C40.0646 75 34.4255 73.2894 29.629 70.0845C24.8326 66.8797 21.0942 62.3245 18.8867 56.9949C16.6791 51.6654 16.1015 45.801 17.2269 40.1432C18.3523 34.4854 21.1302 29.2884 25.2092 25.2094C29.2883 21.1304 34.4853 18.3525 40.143 17.2271C45.8008 16.1017 51.6653 16.6793 56.9948 18.8868C62.3243 21.0944 66.8795 24.8328 70.0844 29.6292C73.2893 34.4256 74.9998 40.0647 74.9998 45.8333C74.9998 53.5688 71.9269 60.9875 66.4571 66.4573C60.9873 71.9271 53.5687 75 45.8332 75Z" fill="#424242"/>
</svg>
