<svg width="14" height="14" viewBox="0 0 14 14" fill="none" xmlns="http://www.w3.org/2000/svg">
  <path fill-rule="evenodd" clip-rule="evenodd"
    d="M7 14C10.866 14 14 10.866 14 7C14 3.13401 10.866 0 7 0C3.13401 0 0 3.13401 0 7C0 10.866 3.13401 14 7 14ZM8.4 4C8.4 3.2268 7.7732 2.6 7 2.6C6.2268 2.6 5.6 3.2268 5.6 4V6.5C5.6 7.2732 6.2268 7.9 7 7.9C7.7732 7.9 8.4 7.2732 8.4 6.5V4ZM8.4 10.25C8.4 9.4768 7.7732 8.85 7 8.85C6.2268 8.85 5.6 9.4768 5.6 10.25V10.5C5.6 11.2732 6.2268 11.9 7 11.9C7.7732 11.9 8.4 11.2732 8.4 10.5V10.25Z"
    fill="#f2d9d2" />
</svg>